<?xml version="1.0" encoding="UTF-8"?>
<svg width="27px" height="27px" viewBox="0 0 27 27" version="1.1" xmlns="http://www.w3.org/2000/svg" xmlns:xlink="http://www.w3.org/1999/xlink">
    <!-- Generator: Sketch 55.2 (78181) - https://sketchapp.com -->
    <title>icon/cancel</title>
    <desc>Created with Sketch.</desc>
    <g id="icon/cancel" stroke="none" stroke-width="1" fill="none" fill-rule="evenodd">
        <g id="Group" transform="translate(1.000000, 1.000000)" fill-rule="nonzero">
            <path d="M12.5,25 C5.59642856,25 0,19.4035714 0,12.5 C0,5.59642856 5.59642856,0 12.5,0 C19.4035714,0 25,5.59642856 25,12.5 C25,19.4035714 19.4035714,25 12.5,25 Z M12.5,1.78571428 C6.91130952,1.78571428 1.78571428,6.91130952 1.78571428,12.5 C1.78571428,18.0886905 6.91130952,23.2142857 12.5,23.2142857 C18.0886905,23.2142857 23.2142857,18.0886905 23.2142857,12.5 C23.2142857,6.91130952 18.0886905,1.78571428 12.5,1.78571428 Z" id="Shape" fill="#17AE7E"></path>
            <path d="M18.1017857,18.1910714 C17.8786935,18.4145433 17.5758876,18.5401204 17.2601191,18.5401204 C16.9443505,18.5401204 16.6415446,18.4145433 16.4184524,18.1910714 L12.6303572,14.4035714 L8.84226191,18.1910714 C8.37742225,18.6560755 7.62363498,18.6562087 7.15863094,18.1913691 C6.69362691,17.7265294 6.69349366,16.9727421 7.15833333,16.5077381 L10.9464286,12.7196428 L7.15833333,8.93154761 C6.69349366,8.46654357 6.69362692,7.71275631 7.15863096,7.24791665 C7.623635,6.78307699 8.37742225,6.78321024 8.84226191,7.24821428 L12.6303572,11.0363095 L16.4184524,7.24821428 C16.7173505,6.93874188 17.1599738,6.81462736 17.5761995,6.92357427 C17.9924252,7.03252119 18.3174788,7.35757485 18.4264257,7.77380054 C18.5353726,8.19002623 18.4112581,8.63264949 18.1017857,8.93154761 L14.3136905,12.7196428 L18.1017857,16.5077381 C18.5665261,16.9726189 18.5665261,17.7261907 18.1017857,18.1910714 Z" id="Path" stroke="#FFFFFF" stroke-width="0.5" fill="#5F6379"></path>
        </g>
    </g>
</svg>