<?xml version="1.0" encoding="UTF-8"?>
<svg width="22px" height="22px" viewBox="0 0 22 22" version="1.1" xmlns="http://www.w3.org/2000/svg" xmlns:xlink="http://www.w3.org/1999/xlink">
    <!-- Generator: Sketch 55.2 (78181) - https://sketchapp.com -->
    <title>icon/export</title>
    <desc>Created with Sketch.</desc>
    <g id="icon/export" stroke="none" stroke-width="1" fill="none" fill-rule="evenodd">
        <path d="M20.604085,13.7362236 C20.8747178,13.7362236 21.106248,13.8321738 21.2977793,14.0239424 C21.489416,14.2157637 21.585498,14.4471621 21.585498,14.7181377 L21.585498,18.6420498 C21.585498,19.4599072 21.3021035,20.1522832 20.7347871,20.7195996 C20.1574512,21.296751 19.4674746,21.585498 18.6651738,21.585498 L2.94331641,21.585498 C2.14130566,21.585498 1.44639844,21.2992822 0.858726562,20.7267715 C0.286136719,20.139126 -9.05941988e-14,19.4441924 -9.05941988e-14,18.6420762 L-9.05941988e-14,14.7181377 C-9.05941988e-14,14.4469512 0.0958183594,14.2157637 0.287613281,14.0239424 C0.479460937,13.8321738 0.710780273,13.7362236 0.981624023,13.7362236 C1.25230957,13.7362236 1.48365527,13.8321738 1.67550293,14.0239424 C1.86727148,14.2157637 1.96311621,14.4471621 1.96311621,14.7181377 L1.96311621,18.6420498 C1.96311621,18.9128408 2.05893457,19.1443184 2.2508877,19.3361396 C2.44268262,19.5279082 2.67387012,19.6234365 2.94481934,19.6234365 L18.6664131,19.6234365 C18.9320889,19.6234365 19.1583193,19.5279082 19.3448145,19.3361396 C19.5312832,19.1443184 19.6245967,18.9128145 19.6245967,18.6420498 L19.6245967,14.7181377 C19.6245967,14.4469512 19.7204941,14.2157637 19.91221,14.0239424 C20.104084,13.8321738 20.3352715,13.7362236 20.6060098,13.7362236 L20.604085,13.7362236 L20.604085,13.7362236 Z" id="Path" fill="#5F6379" fill-rule="nonzero"></path>
        <path d="M11.6060977,0.283921875 L16.5120557,5.18987988 C16.7009502,5.37877441 16.7953447,5.61122754 16.7953447,5.88734473 C16.7953447,6.16862988 16.702084,6.40234863 16.5158525,6.58871191 C16.3293838,6.77528613 16.0956123,6.86841504 15.8145381,6.86841504 C15.5383418,6.86841504 15.3056777,6.77391504 15.1168887,6.58502051 L11.8900459,3.35029395 L11.8900459,14.717874 C11.8900459,14.9885596 11.7942012,15.2199316 11.6025908,15.4117529 C11.4107168,15.6034688 11.1794238,15.6993662 10.9087119,15.6993662 C10.6376309,15.6993662 10.4064434,15.6034688 10.2147275,15.4117529 C10.0228799,15.2199316 9.92679785,14.9885332 9.92679785,14.717874 L9.92679785,3.35029395 L6.70040332,6.58502051 C6.50106738,6.77402051 6.26861426,6.86841504 6.00262207,6.86841504 C5.73156738,6.86841504 5.50059082,6.77243848 5.30874316,6.58080176 C5.11689551,6.38905957 5.02091895,6.15755566 5.02091895,5.88681738 C5.02091895,5.62093066 5.11520801,5.3882666 5.30420801,5.18924707 L10.2101133,0.283289063 C10.3989023,0.0942890625 10.6317773,3.46389584e-14 10.90771,3.46389584e-14 C11.1846445,0.0006328125 11.4172031,0.09534375 11.6060977,0.283921875 Z" id="Path" fill="#17AE7E" fill-rule="nonzero"></path>
    </g>
</svg>