<?xml version="1.0" encoding="UTF-8"?>
<svg width="27px" height="27px" viewBox="0 0 27 27" version="1.1" xmlns="http://www.w3.org/2000/svg" xmlns:xlink="http://www.w3.org/1999/xlink">
    <!-- Generator: Sketch 55.2 (78181) - https://sketchapp.com -->
    <title>icon/confirm</title>
    <desc>Created with Sketch.</desc>
    <g id="icon/confirm" stroke="none" stroke-width="1" fill="none" fill-rule="evenodd">
        <g id="Group" transform="translate(1.000000, 1.000000)" fill-rule="nonzero">
            <path d="M12.5,1.7578125 C13.9501953,1.7578125 15.3564453,2.04101562 16.6796875,2.60009766 C17.9589844,3.14208984 19.1064453,3.91601562 20.0952148,4.90234375 C21.081543,5.88867188 21.8579102,7.03857422 22.3974609,8.31787109 C22.9589844,9.64355469 23.2421875,11.0498047 23.2421875,12.5 C23.2421875,13.9501953 22.9589844,15.3564453 22.3999023,16.6796875 C21.8579102,17.9589844 21.0839844,19.1064453 20.0976562,20.0952148 C19.1113281,21.081543 17.9614258,21.8579102 16.6821289,22.3974609 C15.3564453,22.9589844 13.9501953,23.2421875 12.5,23.2421875 C11.0498047,23.2421875 9.64355469,22.9589844 8.3203125,22.3999023 C7.04101563,21.8579102 5.89355469,21.0839844 4.90478516,20.0976562 C3.91845703,19.1113281 3.14208984,17.9614258 2.60253906,16.6821289 C2.04101562,15.3564453 1.7578125,13.9501953 1.7578125,12.5 C1.7578125,11.0498047 2.04101562,9.64355469 2.60009766,8.3203125 C3.14208984,7.04101563 3.91601562,5.89355469 4.90234375,4.90478516 C5.88867188,3.91845703 7.03857422,3.14208984 8.31787109,2.60253906 C9.64355469,2.04101562 11.0498047,1.7578125 12.5,1.7578125 L12.5,1.7578125 Z M12.5,0 C5.59570312,0 0,5.59570312 0,12.5 C0,19.4042969 5.59570312,25 12.5,25 C19.4042969,25 25,19.4042969 25,12.5 C25,5.59570313 19.4042969,0 12.5,0 Z" id="Shape" fill="#17AE7E"></path>
            <path d="M9.03808594,16.8994141 L5.4296875,13.2910156 C5.08544922,12.9467773 5.08544922,12.3901367 5.4296875,12.0483398 C5.77392578,11.7041016 6.33056641,11.7041016 6.67236328,12.0483398 L10.2807617,15.6567383 C10.3125,15.6884766 10.3515625,15.6958008 10.3759766,15.6958008 C10.4003906,15.6958008 10.4394531,15.6884766 10.4711914,15.6567383 L18.3251953,7.80517578 C18.6694336,7.4609375 19.2260742,7.4609375 19.5678711,7.80517578 C19.9121094,8.14941406 19.9121094,8.70605469 19.5678711,9.04785156 L11.7163086,16.8994141 C11.3574219,17.2558594 10.8837891,17.4536133 10.3759766,17.4536133 C9.87060547,17.4536133 9.39453125,17.2558594 9.03808594,16.8994141 Z" id="Path" fill="#5F6379"></path>
        </g>
    </g>
</svg>