<?xml version="1.0" encoding="UTF-8"?>
<svg width="27px" height="27px" viewBox="0 0 27 27" version="1.1" xmlns="http://www.w3.org/2000/svg">
    <!-- Generator: Sketch 55.2 (78181) - https://sketchapp.com -->
    <title>icon/exit</title>
    <desc>Created with Sketch.</desc>
    <g id="icon/exit" stroke="none" stroke-width="1" fill="none" fill-rule="evenodd">
        <g id="shrink" transform="translate(2.000000, 2.000000)" fill-rule="nonzero">
            <path d="M1.64286982,0 L21.3571302,0 C22.2644701,0 23,0.735529933 23,1.64286982 L23,21.3571302 C23,22.2644701 22.2644701,23 21.3571302,23 L1.64286982,23 C0.735529933,23 0,22.2644701 0,21.3571302 L0,1.64286982 C0,0.735529933 0.735529933,0 1.64286982,0 Z M1.84,1.84 L1.84,21.16 L21.16,21.16 L21.16,1.84 L1.84,1.84 Z"
                  id="Combined-Shape" fill="#5F6379"></path>
            <path d="M15.3212885,8.86460597 L18.3281175,8.86460597 C18.7912244,8.86460597 19.1666667,9.24001641 19.1666667,9.70315141 C19.1666667,10.166226 18.7912244,10.5416667 18.3281175,10.5416667 L13.2968524,10.5416667 C12.8337756,10.5416667 12.4583333,10.1662562 12.4583333,9.70315141 L12.4583333,4.67187877 C12.4583333,4.20877396 12.8337455,3.83333333 13.2968524,3.83333333 C13.7599894,3.83333333 14.1354016,4.20877396 14.1354016,4.67187877 L14.1354016,7.67869419 L17.735174,4.07893797 C18.0626483,3.75146512 18.5935866,3.75146512 18.9210609,4.07893797 C19.2485352,4.40641083 19.2485352,4.93734672 18.9210609,5.26481957 L15.3212885,8.86457579 L15.3212885,8.86460597 Z"
                  id="Path" fill="#17AE7E"></path>
            <path d="M7.67871149,14.135394 L4.67188255,14.135394 C4.20877565,14.135394 3.83333333,13.7599836 3.83333333,13.2968486 C3.83333333,12.833774 4.20877565,12.4583333 4.67188255,12.4583333 L9.70314764,12.4583333 C10.1662244,12.4583333 10.5416667,12.8337438 10.5416667,13.2968486 L10.5416667,18.3281212 C10.5416667,18.791226 10.1662545,19.1666667 9.70314764,19.1666667 C9.24001055,19.1666667 8.86459843,18.791226 8.86459843,18.3281212 L8.86459843,15.3213058 L5.26482601,18.921062 C4.93735169,19.2485349 4.40641341,19.2485349 4.07893908,18.921062 C3.75146475,18.5935892 3.75146475,18.0626533 4.07893908,17.7351804 L7.67871149,14.1354242 L7.67871149,14.135394 Z"
                  id="Path" fill="#17AE7E"></path>
        </g>
    </g>
</svg>