<?xml version="1.0" encoding="UTF-8"?>
<svg width="27px" height="27px" viewBox="0 0 27 27" version="1.1" xmlns="http://www.w3.org/2000/svg">
    <!-- Generator: Sketch 55.2 (78181) - https://sketchapp.com -->
    <title>icon/fullscreen</title>
    <desc>Created with Sketch.</desc>
    <g id="icon/fullscreen" stroke="none" stroke-width="1" fill="none" fill-rule="evenodd">
        <g id="shrink-copy" transform="translate(2.000000, 2.000000)" fill-rule="nonzero">
            <path d="M1.64286982,0 L21.3571302,0 C22.2644701,0 23,0.735529933 23,1.64286982 L23,21.3571302 C23,22.2644701 22.2644701,23 21.3571302,23 L1.64286982,23 C0.735529933,23 0,22.2644701 0,21.3571302 L0,1.64286982 C0,0.735529933 0.735529933,0 1.64286982,0 Z M1.84,1.84 L1.84,21.16 L21.16,21.16 L21.16,1.84 L1.84,1.84 Z"
                  id="Combined-Shape" fill="#5F6379"></path>
            <path d="M6.66295518,17.6312726 L9.66978412,17.6312726 C10.132891,17.6312726 10.5083333,18.0066831 10.5083333,18.4698181 C10.5083333,18.9328927 10.132891,19.3083333 9.66978412,19.3083333 L4.63851903,19.3083333 C4.17544231,19.3083333 3.8,18.9329229 3.8,18.4698181 L3.8,13.4385454 C3.8,12.9754406 4.17541213,12.6 4.63851903,12.6 C5.10165611,12.6 5.47706824,12.9754406 5.47706824,13.4385454 L5.47706824,16.4453609 L9.07684065,12.8456046 C9.40431498,12.5181318 9.93525326,12.5181318 10.2627276,12.8456046 C10.5902019,13.1730775 10.5902019,13.7040134 10.2627276,14.0314862 L6.66295518,17.6312425 L6.66295518,17.6312726 Z"
                  id="Path-Copy" fill="#17AE7E"></path>
        </g>
        <path d="M18.3453782,7.47706069 L15.3385492,7.47706069 C14.8754423,7.47706069 14.5,7.10165026 14.5,6.63851525 C14.5,6.17544062 14.8754423,5.8 15.3385492,5.8 L20.3698143,5.8 C20.832891,5.8 21.2083333,6.17541044 21.2083333,6.63851525 L21.2083333,11.6697879 C21.2083333,12.1328927 20.8329212,12.5083333 20.3698143,12.5083333 C19.9066772,12.5083333 19.5312651,12.1328927 19.5312651,11.6697879 L19.5312651,8.66297248 L15.9314927,12.2627287 C15.6040184,12.5902015 15.0730801,12.5902015 14.7456057,12.2627287 C14.4181314,11.9352558 14.4181314,11.4043199 14.7456057,11.0768471 L18.3453782,7.47709088 L18.3453782,7.47706069 Z"
              id="Path" fill="#17AE7E" fill-rule="nonzero"></path>
    </g>
</svg>