<?xml version="1.0" encoding="UTF-8"?>
<svg width="27px" height="27px" viewBox="0 0 27 27" version="1.1" xmlns="http://www.w3.org/2000/svg" xmlns:xlink="http://www.w3.org/1999/xlink">
    <!-- Generator: Sketch 55.2 (78181) - https://sketchapp.com -->
    <title>icon/play</title>
    <desc>Created with Sketch.</desc>
    <g id="icon/play" stroke="none" stroke-width="1" fill="none" fill-rule="evenodd">
        <g id="Group" transform="translate(1.000000, 1.000000)" fill-rule="nonzero">
            <path d="M12.5,25 C5.596875,25 0,19.403125 0,12.5 C0,5.596875 5.596875,0 12.5,0 C19.403125,0 25,5.596875 25,12.5 C25,19.403125 19.403125,25 12.5,25 Z M12.5,2.08333333 C6.746875,2.08333333 2.08333333,6.746875 2.08333333,12.5 C2.08333333,18.253125 6.746875,22.9166667 12.5,22.9166667 C18.253125,22.9166667 22.9166667,18.253125 22.9166667,12.5 C22.9166667,6.746875 18.253125,2.08333333 12.5,2.08333333 Z" id="Combined-Shape" fill="#17AE7E"></path>
            <path d="M18.6354167,13.0208333 C18.6239583,13.04375 18.6020833,13.05625 18.5885417,13.078125 C18.553125,13.1354167 18.50625,13.1833333 18.459375,13.2333333 C18.4166667,13.278125 18.3770833,13.3229167 18.3270833,13.3572917 C18.30625,13.3729167 18.2927083,13.396875 18.2697917,13.4114583 L10.128125,18.4208333 C9.96626483,18.584674 9.75439966,18.6898735 9.52604167,18.7197917 C9.47916667,18.7302083 9.43333335,18.74375 9.38541667,18.7479167 L9.375,18.75 C9.36666667,18.75 9.36041667,18.7458333 9.35208333,18.7447917 C9.08324989,18.7533693 8.82396975,18.644639 8.64166667,18.446875 C8.6375,18.44375 8.63541667,18.4385417 8.63125,18.434375 C8.57395833,18.3729167 8.51145833,18.3177083 8.46875,18.2385417 C8.45416667,18.2114583 8.45416667,18.1822917 8.44270833,18.1541667 C8.41666665,18.1010417 8.40520833,18.0427083 8.38958333,17.9854167 C8.371875,17.91875 8.353125,17.8552083 8.34895833,17.7875 C8.346875,17.759375 8.33333333,17.7364583 8.33333333,17.7083333 L8.33333333,7.315625 C8.32916665,7.13020833 8.35416665,6.94270833 8.446875,6.77083333 C8.61378995,6.46069022 8.93737719,6.26709785 9.28958333,6.26666667 C9.31979167,6.26458333 9.34479167,6.25 9.375,6.25 C9.38854167,6.25 9.4,6.25729167 9.41458333,6.25833333 L9.42291667,6.259375 C9.70344763,6.27239724 9.96631787,6.40006631 10.15,6.6125 L18.2770833,11.5979167 C18.3072917,11.6166667 18.325,11.646875 18.353125,11.66875 C18.3697917,11.68125 18.3833333,11.6979167 18.3989583,11.7125 C18.4861267,11.7867864 18.5597828,11.8755966 18.6166667,11.975 L18.628125,11.9885417 C18.6333333,12 18.6333333,12.0125 18.6385417,12.0239583 C18.6895833,12.1270833 18.725,12.2333333 18.7416667,12.3489583 C18.7458333,12.3802083 18.7458333,12.409375 18.7479167,12.4395833 C18.7541312,12.5358243 18.7478286,12.6324648 18.7291667,12.7270833 C18.71875,12.7770833 18.7,12.8229167 18.6833333,12.8708333 C18.665625,12.9208333 18.6614583,12.9729167 18.6354167,13.0208333 Z M10.4166667,9.18125 L10.4166667,15.8375 L15.8333333,12.5041667 L10.4166667,9.18125 Z" id="Combined-Shape" fill="#5F6379"></path>
        </g>
    </g>
</svg>