<?xml version="1.0" encoding="UTF-8"?>
<svg width="27px" height="27px" viewBox="0 0 27 27" version="1.1" xmlns="http://www.w3.org/2000/svg" xmlns:xlink="http://www.w3.org/1999/xlink">
    <!-- Generator: Sketch 55.2 (78181) - https://sketchapp.com -->
    <title>icon/preview</title>
    <desc>Created with Sketch.</desc>
    <g id="icon/preview" stroke="none" stroke-width="1" fill="none" fill-rule="evenodd">
        <g id="Group" transform="translate(0.000000, 3.000000)" fill-rule="nonzero">
            <path d="M13.4973633,20 C2.42050781,20 0.0685546875,10.2931202 0.0448242187,10.1962209 L-5.32907052e-15,10 L0.0448242187,9.80377907 C0.0659179687,9.70687984 2.41787109,0 13.4973633,0 C24.5768555,0 26.9288086,9.70687984 26.9499023,9.80377907 L27,10.0242248 L26.9367187,10.2422481 C26.9129883,10.3391473 24.0231445,20 13.4973633,20 Z M2.12519531,9.99757752 C2.48642578,11.2766473 4.81992187,18.0935078 13.5,18.0935078 C21.6949219,18.0935078 24.4081055,11.3226744 24.8668945,9.97577519 C24.4819336,8.63129845 22.1194336,1.90406977 13.5,1.90406977 C4.78828125,1.90406977 2.48378906,8.71124031 2.12519531,9.99757752 Z" id="Shape" fill="#17AE7E"></path>
            <path d="M13.4914814,14.9835937 C10.6332782,14.9835937 8.30769231,12.7441406 8.30769231,9.99179687 C8.30769231,7.23945312 10.6332782,5 13.4914814,5 C14.0636493,5 14.5277118,5.446875 14.5277118,5.99785156 C14.5277118,6.54882812 14.0636493,6.99570312 13.4914814,6.99570312 C11.7776142,6.99570312 10.38279,8.33886719 10.38279,9.98925781 C10.38279,11.6396484 11.7776142,12.9828125 13.4914814,12.9828125 C15.2053486,12.9828125 16.6028095,11.6421875 16.6028095,9.99179687 C16.6028095,9.36210937 16.4024189,8.76035156 16.0253681,8.25253906 C15.6905048,7.803125 15.7986103,7.18105469 16.2653095,6.85859375 C16.7320087,6.53613281 17.3780048,6.64023437 17.7102314,7.08964844 C18.3430439,7.94023437 18.6752704,8.94316406 18.6752704,9.99179687 C18.6752704,12.7441406 16.3496845,14.9835937 13.4914814,14.9835937 L13.4914814,14.9835937 Z" id="Path" fill="#5F6379"></path>
        </g>
    </g>
</svg>