<?xml version="1.0" encoding="UTF-8"?>
<svg width="26px" height="26px" viewBox="0 0 26 26" version="1.1" xmlns="http://www.w3.org/2000/svg" xmlns:xlink="http://www.w3.org/1999/xlink">
    <!-- Generator: Sketch 55.2 (78181) - https://sketchapp.com -->
    <title>icon/preview</title>
    <desc>Created with Sketch.</desc>
    <g id="icon/preview" stroke="none" stroke-width="1" fill="none" fill-rule="evenodd">
        <path d="M12.9974609,23 C2.33085938,23 0.066015625,13.2931202 0.0431640625,13.1962209 L0,13 L0.0431640625,12.8037791 C0.0634765625,12.7068798 2.32832031,3 12.9974609,3 C23.6666016,3 25.9314453,12.7068798 25.9517578,12.8037791 L26,13.0242248 L25.9390625,13.2422481 C25.9162109,13.3391473 23.1333984,23 12.9974609,23 Z M2.04648438,12.9975775 C2.39433594,14.2766473 4.64140625,21.0935078 13,21.0935078 C20.8914063,21.0935078 23.5041016,14.3226744 23.9458984,12.9757752 C23.5751953,11.6312984 21.3001953,4.90406977 13,4.90406977 C4.6109375,4.90406977 2.39179688,11.7112403 2.04648438,12.9975775 Z" id="Shape" fill="#17AE7E" fill-rule="nonzero"></path>
        <path d="M12.9917969,17.9835938 C10.2394531,17.9835938 8,15.7441406 8,12.9917969 C8,10.2394531 10.2394531,8 12.9917969,8 C13.5427734,8 13.9896484,8.446875 13.9896484,8.99785156 C13.9896484,9.54882813 13.5427734,9.99570313 12.9917969,9.99570313 C11.3414062,9.99570313 9.99824219,11.3388672 9.99824219,12.9892578 C9.99824219,14.6396484 11.3414062,15.9828125 12.9917969,15.9828125 C14.6421875,15.9828125 15.9878906,14.6421875 15.9878906,12.9917969 C15.9878906,12.3621094 15.7949219,11.7603516 15.4318359,11.2525391 C15.109375,10.803125 15.2134766,10.1810547 15.6628906,9.85859375 C16.1123047,9.53613281 16.734375,9.64023438 17.0542969,10.0896484 C17.6636719,10.9402344 17.9835937,11.9431641 17.9835937,12.9917969 C17.9835937,15.7441406 15.7441406,17.9835938 12.9917969,17.9835938 L12.9917969,17.9835938 Z" id="Path" fill="#5F6379" fill-rule="nonzero"></path>
    </g>
</svg>