<?xml version="1.0" encoding="UTF-8"?>
<svg width="27px" height="27px" viewBox="0 0 27 27" version="1.1" xmlns="http://www.w3.org/2000/svg" xmlns:xlink="http://www.w3.org/1999/xlink">
    <!-- Generator: Sketch 55.2 (78181) - https://sketchapp.com -->
    <title>icon/question</title>
    <desc>Created with Sketch.</desc>
    <g id="icon/question" stroke="none" stroke-width="1" fill="none" fill-rule="evenodd">
        <path d="M13.5,2 C7.12272727,2 2,7.12272727 2,13.5 C2,19.8772727 7.12272727,25 13.5,25 C19.8772727,25 25,19.8772727 25,13.5 C25,7.12272727 19.8772727,2 13.5,2 Z M13.5,23.3272727 C8.06363636,23.3272727 3.67272727,18.9363636 3.67272727,13.5 C3.67272727,8.06363636 8.06363636,3.67272727 13.5,3.67272727 C18.9363636,3.67272727 23.3272727,8.06363636 23.3272727,13.5 C23.3272727,18.9363636 18.9363636,23.3272727 13.5,23.3272727 Z M13.8136364,8.69090909 C12.7681818,8.69090909 11.9318182,9.00454544 11.4090909,9.42272727 C10.8863636,9.94545453 10.5727273,10.3636364 10.3636364,11.3045454 L10.2590909,11.6181818 L11.8272727,11.8272727 L11.9318182,11.6181818 C12.0363636,11.0954546 12.1409091,10.9909091 12.35,10.6772727 C12.6636364,10.2590909 13.2909091,10.05 13.9181818,10.05 C14.8590909,10.05 15.5909091,10.5727273 15.5909091,11.3045454 C15.5909091,11.6181818 15.4863636,11.8272727 15.2772727,12.1409091 C15.1727273,12.2454545 14.9636364,12.4545454 14.5454546,12.7681818 C13.8136364,13.2909091 13.7090909,13.3954546 13.3954546,13.7090909 C13.0818182,14.2318182 12.8727273,14.65 12.8727273,15.2772727 L12.8727273,16.3227273 L14.3363636,16.3227273 L14.3363636,16.0090909 L14.3363636,15.5909091 L14.3363636,15.3818182 C14.3363636,14.9636364 14.4409091,14.65 14.65,14.4409091 C14.7545454,14.2318182 14.9636364,14.1272727 15.6954546,13.6045454 C16.3227273,13.0818182 16.6363636,12.8727273 16.8454546,12.4545454 C17.0545455,12.0363636 17.1590909,11.6181818 17.1590909,11.2 C16.95,9.73636364 15.6954546,8.69090909 13.8136364,8.69090909 L13.8136364,8.69090909 Z M12.8727273,17.4727273 L14.5454546,17.4727273 L14.5454546,18.9363636 L12.8727273,18.9363636 L12.8727273,17.4727273 Z" id="Shape" fill="#E3E3E3" fill-rule="nonzero"></path>
    </g>
</svg>