<?xml version="1.0" encoding="UTF-8"?>
<svg width="27px" height="27px" viewBox="0 0 27 27" version="1.1" xmlns="http://www.w3.org/2000/svg" xmlns:xlink="http://www.w3.org/1999/xlink">
    <!-- Generator: Sketch 55.2 (78181) - https://sketchapp.com -->
    <title>icon/search</title>
    <desc>Created with Sketch.</desc>
    <g id="icon/search" stroke="none" stroke-width="1" fill="none" fill-rule="evenodd">
        <g id="搜索" transform="translate(2.000000, 2.000000)" fill="#E3E3E3" fill-rule="nonzero">
            <path d="M16.1003339,14.6434 L22.2955137,20.9161641 C22.6964905,21.3221659 22.6924281,21.9763479 22.2864262,22.3773246 C21.8804244,22.7782779 21.2262659,22.7742155 20.8252892,22.3682136 L14.6386097,16.1041144 C13.1132732,17.3124925 11.1846586,18.0340909 9.08749112,18.0340909 C4.146432,18.0340909 0.140891335,14.0285502 0.140891335,9.08749112 C0.140891335,4.146432 4.146432,0.140891335 9.08749112,0.140891335 C14.0285502,0.140891335 18.0340909,4.146432 18.0340909,9.08749112 C18.0340909,11.1868425 17.3110131,13.1172886 16.1003339,14.6434 Z M9.08749112,15.9676847 C12.8873304,15.9676847 15.9676847,12.8873304 15.9676847,9.08749112 C15.9676847,5.28765181 12.8873304,2.20729759 9.08749112,2.20729759 C5.28765181,2.20729759 2.20729759,5.28765181 2.20729759,9.08749112 C2.20729759,12.8873304 5.28765181,15.9676847 9.08749112,15.9676847 Z" id="Shape"></path>
        </g>
    </g>
</svg>