<?xml version="1.0" encoding="UTF-8"?>
<svg width="27px" height="27px" viewBox="0 0 27 27" version="1.1" xmlns="http://www.w3.org/2000/svg" xmlns:xlink="http://www.w3.org/1999/xlink">
    <!-- Generator: Sketch 55.2 (78181) - https://sketchapp.com -->
    <title>icon/share</title>
    <desc>Created with Sketch.</desc>
    <g id="icon/share" stroke="none" stroke-width="1" fill="none" fill-rule="evenodd">
        <g id="Group" transform="translate(3.000000, 3.000000)">
            <path d="M4.7597305,18.4357635 C6.59615939,18.4357635 8.18538192,17.3811296 8.95660004,15.8444674 L13.4764136,16.6405627 L13.4747947,16.75966 C13.4747947,18.6111716 14.9755982,20.1117053 16.8267321,20.1117053 C18.677893,20.1117053 20.1786964,18.6111986 20.1786964,16.75966 C20.1786964,14.9082292 18.677893,13.4078035 16.8267321,13.4078035 C15.4843382,13.4078035 14.3269309,14.1957503 13.7913711,15.3350798 L9.38207458,14.558951 C9.42859104,14.2942605 9.4525238,14.0211786 9.4525238,13.7429433 C9.4525238,12.5177849 8.9826374,11.4024691 8.21419838,10.5671425 L12.291404,6.48945116 C12.6593266,6.62821808 13.0580892,6.70379382 13.4747677,6.70379382 C15.3259016,6.70379382 16.8267051,5.20336812 16.8267051,3.35193739 C16.8267051,1.50050665 15.3259016,3.90798505e-14 13.4747677,3.90798505e-14 C11.6236338,3.90798505e-14 10.1228303,1.50050665 10.1228303,3.35193739 C10.1228303,4.29211493 10.5100718,5.14147207 11.1333492,5.75036824 L7.16803666,9.71570774 C6.46381412,9.29349801 5.64060226,9.05020396 4.7597305,9.05020396 C2.16824553,9.05031188 0.0670990996,11.1511615 0.0670990996,13.7429433 C0.0670990996,16.334806 2.16824553,18.4357635 4.7597305,18.4357635 Z" id="Path" fill="#5F6379" fill-rule="nonzero"></path>
            <circle id="Oval" fill="#17AE7E" cx="4.75" cy="13.7465313" r="4.75"></circle>
        </g>
    </g>
</svg>