<?xml version="1.0" encoding="UTF-8"?>
<svg width="25px" height="25px" viewBox="0 0 25 25" version="1.1" xmlns="http://www.w3.org/2000/svg" xmlns:xlink="http://www.w3.org/1999/xlink">
    <!-- Generator: Sketch 55.2 (78181) - https://sketchapp.com -->
    <title>icon/theme</title>
    <desc>Created with Sketch.</desc>
    <g id="icon/theme" stroke="none" stroke-width="1" fill="none" fill-rule="evenodd">
        <g id="Group">
            <path d="M23.9583333,-3.55271368e-15 C24.53125,-3.55271368e-15 25,0.46875 25,1.04166667 L25,23.9583333 C25,24.53125 24.53125,25 23.9583333,25 L1.04166667,25 C0.46875,25 -8.52651283e-14,24.53125 -8.52651283e-14,23.9583333 L-8.52651283e-14,1.04166667 C-8.52651283e-14,0.46875 0.46875,-3.55271368e-15 1.04166667,-3.55271368e-15 L23.9583333,-3.55271368e-15 Z M22.9166667,2.08333333 L2.08333333,2.08333333 L2.08333333,6.25 L22.9166667,6.25 L22.9166667,2.08333333 Z M2.08333333,8.33333333 L2.08333333,22.9166667 L6.25,22.9166667 L6.25,8.33333333 L2.08333333,8.33333333 Z M8.33333333,22.9166667 L22.9166667,22.9166667 L22.9166667,8.33333333 L8.33333333,8.33333333 L8.33333333,22.9166667 Z" id="Combined-Shape" fill="#7C7C7C" fill-rule="nonzero"></path>
            <path d="M2,7.4 L23,7.4" id="Line-4" stroke="#17AE7E" stroke-width="2" opacity="0.699999988"></path>
            <path d="M7.4,7 L7.4,23" id="Line-4-Copy" stroke="#17AE7E" stroke-width="2"></path>
        </g>
    </g>
</svg>