<?xml version="1.0" encoding="UTF-8" standalone="no"?><!DOCTYPE svg PUBLIC "-//W3C//DTD SVG 1.1//EN"
        "http://www.w3.org/Graphics/SVG/1.1/DTD/svg11.dtd">
<svg width="100%" height="100%" viewBox="0 0 2247 1517" version="1.1" xmlns="http://www.w3.org/2000/svg"
     xml:space="preserve"
     style="fill-rule:evenodd;clip-rule:evenodd;stroke-linejoin:round;stroke-miterlimit:1.41421;"><rect id="Artboard1" x="0" y="0" width="2246.6" height="1516.5" style="fill:none;"/>
    <clipPath id="_clip1"><rect x="0" y="0" width="2246.6" height="1516.5"/></clipPath>
    <g clip-path="url(#_clip1)"><rect x="0" y="0" width="2237.6" height="1516.5" style="fill:#fdd001;fill-opacity:0.0509804;"/>
        <rect x="0" y="0" width="2237.6" height="17.554" style="fill:#fdd001;"/>
        <g><circle cx="1352.96" cy="712.388" r="7.672" style="fill:#fdd001;"/>
            <circle cx="1863.22" cy="712.388" r="7.672" style="fill:#fdd001;"/>
            <circle cx="1352.96" cy="653.262" r="7.672" style="fill:#fdd001;"/>
            <circle cx="1863.22" cy="653.262" r="7.672" style="fill:#fdd001;"/>
            <circle cx="1352.96" cy="594.136" r="7.672" style="fill:#fdd001;"/>
            <circle cx="1863.22" cy="594.136" r="7.672" style="fill:#fdd001;"/>
            <circle cx="1863.22" cy="1001.58" r="7.672" style="fill:#fdd001;"/>
            <circle cx="1863.22" cy="539.357" r="7.672" style="fill:#fdd001;"/>
            <circle cx="1352.96" cy="943.32" r="7.672" style="fill:#fdd001;"/>
            <circle cx="1863.22" cy="943.32" r="7.672" style="fill:#fdd001;"/>
            <circle cx="1352.96" cy="886.802" r="7.672" style="fill:#fdd001;"/>
            <circle cx="1863.22" cy="886.802" r="7.672" style="fill:#fdd001;"/>
            <circle cx="1352.96" cy="829.415" r="7.672" style="fill:#fdd001;"/>
            <circle cx="1863.22" cy="829.415" r="7.672" style="fill:#fdd001;"/>
            <circle cx="1352.96" cy="770.289" r="7.672" style="fill:#fdd001;"/>
            <circle cx="1863.22" cy="770.289" r="7.672" style="fill:#fdd001;"/>
            <circle cx="1806.93" cy="712.388" r="7.672" style="fill:#fdd001;"/>
            <circle cx="1304.5" cy="712.388" r="7.672" style="fill:#fdd001;"/>
            <circle cx="1318.4" cy="653.262" r="7.672" style="fill:#fdd001;"/>
            <circle cx="1806.93" cy="653.262" r="7.672" style="fill:#fdd001;"/>
            <circle cx="1806.93" cy="1057.23" r="7.672" style="fill:#fdd001;"/>
            <circle cx="1806.93" cy="594.136" r="7.672" style="fill:#fdd001;"/>
            <circle cx="1806.93" cy="1001.58" r="7.672" style="fill:#fdd001;"/>
            <circle cx="1806.93" cy="539.357" r="7.672" style="fill:#fdd001;"/>
            <circle cx="1806.93" cy="943.32" r="7.672" style="fill:#fdd001;"/>
            <circle cx="1806.93" cy="486.316" r="7.672" style="fill:#fdd001;"/>
            <circle cx="1319.27" cy="886.802" r="7.672" style="fill:#fdd001;"/>
            <circle cx="1806.93" cy="886.802" r="7.672" style="fill:#fdd001;"/>
            <circle cx="1304.5" cy="829.415" r="7.672" style="fill:#fdd001;"/>
            <circle cx="1806.93" cy="829.415" r="7.672" style="fill:#fdd001;"/>
            <circle cx="1296.67" cy="770.289" r="7.672" style="fill:#fdd001;"/>
            <circle cx="1806.93" cy="770.289" r="7.672" style="fill:#fdd001;"/>
            <circle cx="1690.71" cy="712.388" r="7.672" style="fill:#fdd001;"/>
            <circle cx="1690.71" cy="653.262" r="7.672" style="fill:#fdd001;"/>
            <circle cx="1690.71" cy="1057.23" r="7.672" style="fill:#fdd001;"/>
            <circle cx="1690.71" cy="594.136" r="7.672" style="fill:#fdd001;"/>
            <circle cx="1690.71" cy="1001.58" r="7.672" style="fill:#fdd001;"/>
            <circle cx="1690.71" cy="1105.36" r="7.672" style="fill:#fdd001;"/>
            <circle cx="1690.71" cy="539.357" r="7.672" style="fill:#fdd001;"/>
            <circle cx="1690.71" cy="943.32" r="7.672" style="fill:#fdd001;"/>
            <circle cx="1690.71" cy="486.316" r="7.672" style="fill:#fdd001;"/>
            <circle cx="1690.71" cy="437.14" r="7.672" style="fill:#fdd001;"/>
            <circle cx="1690.71" cy="886.802" r="7.672" style="fill:#fdd001;"/>
            <circle cx="1690.71" cy="829.415" r="7.672" style="fill:#fdd001;"/>
            <circle cx="1690.71" cy="770.289" r="7.672" style="fill:#fdd001;"/>
            <circle cx="1521.84" cy="712.388" r="7.672" style="fill:#fdd001;"/>
            <circle cx="1521.84" cy="653.262" r="7.672" style="fill:#fdd001;"/>
            <circle cx="1521.84" cy="1057.23" r="7.672" style="fill:#fdd001;"/>
            <circle cx="1521.84" cy="594.136" r="7.672" style="fill:#fdd001;"/>
            <circle cx="1521.84" cy="1001.58" r="7.672" style="fill:#fdd001;"/>
            <circle cx="1521.84" cy="1091.45" r="7.672" style="fill:#fdd001;"/>
            <circle cx="1521.84" cy="539.357" r="7.672" style="fill:#fdd001;"/>
            <circle cx="1521.84" cy="943.32" r="7.672" style="fill:#fdd001;"/>
            <circle cx="1521.84" cy="486.316" r="7.672" style="fill:#fdd001;"/>
            <circle cx="1521.84" cy="451.048" r="7.672" style="fill:#fdd001;"/>
            <circle cx="1521.84" cy="886.802" r="7.672" style="fill:#fdd001;"/>
            <circle cx="1521.84" cy="829.415" r="7.672" style="fill:#fdd001;"/>
            <circle cx="1521.84" cy="770.289" r="7.672" style="fill:#fdd001;"/>
            <circle cx="1465.55" cy="712.388" r="7.672" style="fill:#fdd001;"/>
            <circle cx="1972.33" cy="712.388" r="7.672" style="fill:#fdd001;"/>
            <circle cx="1465.55" cy="653.262" r="7.672" style="fill:#fdd001;"/>
            <circle cx="1959.29" cy="653.262" r="7.672" style="fill:#fdd001;"/>
            <circle cx="1465.55" cy="1057.23" r="7.672" style="fill:#fdd001;"/>
            <circle cx="1465.55" cy="594.136" r="7.672" style="fill:#fdd001;"/>
            <circle cx="1465.55" cy="1001.58" r="7.672" style="fill:#fdd001;"/>
            <circle cx="1465.55" cy="539.357" r="7.672" style="fill:#fdd001;"/>
            <circle cx="1465.55" cy="943.32" r="7.672" style="fill:#fdd001;"/>
            <circle cx="1465.55" cy="486.316" r="7.672" style="fill:#fdd001;"/>
            <circle cx="1465.55" cy="886.802" r="7.672" style="fill:#fdd001;"/>
            <circle cx="1958.42" cy="886.802" r="7.672" style="fill:#fdd001;"/>
            <circle cx="1465.55" cy="829.415" r="7.672" style="fill:#fdd001;"/>
            <circle cx="1971.46" cy="829.415" r="7.672" style="fill:#fdd001;"/>
            <circle cx="1465.55" cy="770.289" r="7.672" style="fill:#fdd001;"/>
            <circle cx="1975.81" cy="770.289" r="7.672" style="fill:#fdd001;"/>
            <circle cx="1634.42" cy="712.388" r="7.672" style="fill:#fdd001;"/>
            <circle cx="1634.42" cy="653.262" r="7.672" style="fill:#fdd001;"/>
            <circle cx="1634.42" cy="1057.23" r="7.672" style="fill:#fdd001;"/>
            <circle cx="1634.42" cy="594.136" r="7.672" style="fill:#fdd001;"/>
            <circle cx="1634.42" cy="1001.58" r="7.672" style="fill:#fdd001;"/>
            <circle cx="1634.42" cy="1111.44" r="7.672" style="fill:#fdd001;"/>
            <circle cx="1634.42" cy="539.357" r="7.672" style="fill:#fdd001;"/>
            <circle cx="1634.42" cy="943.32" r="7.672" style="fill:#fdd001;"/>
            <circle cx="1634.42" cy="486.316" r="7.672" style="fill:#fdd001;"/>
            <circle cx="1634.42" cy="431.056" r="7.672" style="fill:#fdd001;"/>
            <circle cx="1634.42" cy="886.802" r="7.672" style="fill:#fdd001;"/>
            <circle cx="1634.42" cy="829.415" r="7.672" style="fill:#fdd001;"/>
            <circle cx="1634.42" cy="770.289" r="7.672" style="fill:#fdd001;"/>
            <circle cx="1409.25" cy="712.388" r="7.672" style="fill:#fdd001;"/>
            <circle cx="1919.52" cy="712.388" r="7.672" style="fill:#fdd001;"/>
            <circle cx="1409.25" cy="653.262" r="7.672" style="fill:#fdd001;"/>
            <circle cx="1919.52" cy="653.262" r="7.672" style="fill:#fdd001;"/>
            <circle cx="1409.25" cy="594.136" r="7.672" style="fill:#fdd001;"/>
            <circle cx="1919.52" cy="594.136" r="7.672" style="fill:#fdd001;"/>
            <circle cx="1409.25" cy="1001.58" r="7.672" style="fill:#fdd001;"/>
            <circle cx="1409.25" cy="539.357" r="7.672" style="fill:#fdd001;"/>
            <circle cx="1409.25" cy="943.32" r="7.672" style="fill:#fdd001;"/>
            <circle cx="1919.52" cy="943.32" r="7.672" style="fill:#fdd001;"/>
            <circle cx="1409.25" cy="886.802" r="7.672" style="fill:#fdd001;"/>
            <circle cx="1919.52" cy="886.802" r="7.672" style="fill:#fdd001;"/>
            <circle cx="1409.25" cy="829.415" r="7.672" style="fill:#fdd001;"/>
            <circle cx="1919.52" cy="829.415" r="7.672" style="fill:#fdd001;"/>
            <circle cx="1409.25" cy="770.289" r="7.672" style="fill:#fdd001;"/>
            <circle cx="1919.52" cy="770.289" r="7.672" style="fill:#fdd001;"/>
            <circle cx="1747" cy="712.388" r="7.672" style="fill:#fdd001;"/>
            <circle cx="1747" cy="653.262" r="7.672" style="fill:#fdd001;"/>
            <circle cx="1747" cy="1057.23" r="7.672" style="fill:#fdd001;"/>
            <circle cx="1747" cy="594.136" r="7.672" style="fill:#fdd001;"/>
            <circle cx="1747" cy="1001.58" r="7.672" style="fill:#fdd001;"/>
            <circle cx="1747" cy="1093.19" r="7.672" style="fill:#fdd001;"/>
            <circle cx="1747" cy="539.357" r="7.672" style="fill:#fdd001;"/>
            <circle cx="1747" cy="943.32" r="7.672" style="fill:#fdd001;"/>
            <circle cx="1747" cy="486.316" r="7.672" style="fill:#fdd001;"/>
            <circle cx="1747" cy="451.048" r="7.672" style="fill:#fdd001;"/>
            <circle cx="1747" cy="886.802" r="7.672" style="fill:#fdd001;"/>
            <circle cx="1747" cy="829.415" r="7.672" style="fill:#fdd001;"/>
            <circle cx="1747" cy="770.289" r="7.672" style="fill:#fdd001;"/>
            <circle cx="1578.13" cy="712.388" r="7.672" style="fill:#fdd001;"/>
            <circle cx="1578.13" cy="653.262" r="7.672" style="fill:#fdd001;"/>
            <circle cx="1578.13" cy="1057.23" r="7.672" style="fill:#fdd001;"/>
            <circle cx="1578.13" cy="594.136" r="7.672" style="fill:#fdd001;"/>
            <circle cx="1578.13" cy="1001.58" r="7.672" style="fill:#fdd001;"/>
            <circle cx="1578.13" cy="1104.49" r="7.672" style="fill:#fdd001;"/>
            <circle cx="1578.13" cy="539.357" r="7.672" style="fill:#fdd001;"/>
            <circle cx="1578.13" cy="943.32" r="7.672" style="fill:#fdd001;"/>
            <circle cx="1578.13" cy="486.316" r="7.672" style="fill:#fdd001;"/>
            <circle cx="1578.13" cy="437.14" r="7.672" style="fill:#fdd001;"/>
            <circle cx="1578.13" cy="886.802" r="7.672" style="fill:#fdd001;"/>
            <circle cx="1578.13" cy="829.415" r="7.672" style="fill:#fdd001;"/>
            <circle cx="1578.13" cy="770.289" r="7.672" style="fill:#fdd001;"/></g></g></svg>