<?xml version="1.0" encoding="UTF-8" standalone="no"?><!DOCTYPE svg PUBLIC "-//W3C//DTD SVG 1.1//EN"
        "http://www.w3.org/Graphics/SVG/1.1/DTD/svg11.dtd">
<svg width="100%" height="100%" viewBox="0 0 2022 1517" version="1.1" xmlns="http://www.w3.org/2000/svg"
     xml:space="preserve"
     style="fill-rule:evenodd;clip-rule:evenodd;stroke-linejoin:round;stroke-miterlimit:1.41421;"><rect id="Artboard1" x="0" y="0" width="2022" height="1516.5" style="fill:none;"/>
    <clipPath id="_clip1"><rect x="0" y="0" width="2022" height="1516.5"/></clipPath>
    <g clip-path="url(#_clip1)"><rect x="0" y="0" width="2022" height="1516.5" style="fill:#fdd001;fill-opacity:0.0509804;"/>
        <rect x="0" y="0" width="2022" height="17.554" style="fill:#fdd001;"/>
        <g><circle cx="1170.96" cy="747.388" r="7.672" style="fill:#fdd001;"/>
            <circle cx="1681.22" cy="747.388" r="7.672" style="fill:#fdd001;"/>
            <circle cx="1170.96" cy="688.262" r="7.672" style="fill:#fdd001;"/>
            <circle cx="1681.22" cy="688.262" r="7.672" style="fill:#fdd001;"/>
            <circle cx="1170.96" cy="629.136" r="7.672" style="fill:#fdd001;"/>
            <circle cx="1681.22" cy="629.136" r="7.672" style="fill:#fdd001;"/>
            <circle cx="1681.22" cy="1036.58" r="7.672" style="fill:#fdd001;"/>
            <circle cx="1681.22" cy="574.357" r="7.672" style="fill:#fdd001;"/>
            <circle cx="1170.96" cy="978.32" r="7.672" style="fill:#fdd001;"/>
            <circle cx="1681.22" cy="978.32" r="7.672" style="fill:#fdd001;"/>
            <circle cx="1170.96" cy="921.802" r="7.672" style="fill:#fdd001;"/>
            <circle cx="1681.22" cy="921.802" r="7.672" style="fill:#fdd001;"/>
            <circle cx="1170.96" cy="864.415" r="7.672" style="fill:#fdd001;"/>
            <circle cx="1681.22" cy="864.415" r="7.672" style="fill:#fdd001;"/>
            <circle cx="1170.96" cy="805.289" r="7.672" style="fill:#fdd001;"/>
            <circle cx="1681.22" cy="805.289" r="7.672" style="fill:#fdd001;"/>
            <circle cx="1624.93" cy="747.388" r="7.672" style="fill:#fdd001;"/>
            <circle cx="1122.5" cy="747.388" r="7.672" style="fill:#fdd001;"/>
            <circle cx="1136.4" cy="688.262" r="7.672" style="fill:#fdd001;"/>
            <circle cx="1624.93" cy="688.262" r="7.672" style="fill:#fdd001;"/>
            <circle cx="1624.93" cy="1092.23" r="7.672" style="fill:#fdd001;"/>
            <circle cx="1624.93" cy="629.136" r="7.672" style="fill:#fdd001;"/>
            <circle cx="1624.93" cy="1036.58" r="7.672" style="fill:#fdd001;"/>
            <circle cx="1624.93" cy="574.357" r="7.672" style="fill:#fdd001;"/>
            <circle cx="1624.93" cy="978.32" r="7.672" style="fill:#fdd001;"/>
            <circle cx="1624.93" cy="521.316" r="7.672" style="fill:#fdd001;"/>
            <circle cx="1137.27" cy="921.802" r="7.672" style="fill:#fdd001;"/>
            <circle cx="1624.93" cy="921.802" r="7.672" style="fill:#fdd001;"/>
            <circle cx="1122.5" cy="864.415" r="7.672" style="fill:#fdd001;"/>
            <circle cx="1624.93" cy="864.415" r="7.672" style="fill:#fdd001;"/>
            <circle cx="1114.67" cy="805.289" r="7.672" style="fill:#fdd001;"/>
            <circle cx="1624.93" cy="805.289" r="7.672" style="fill:#fdd001;"/>
            <circle cx="1508.71" cy="747.388" r="7.672" style="fill:#fdd001;"/>
            <circle cx="1508.71" cy="688.262" r="7.672" style="fill:#fdd001;"/>
            <circle cx="1508.71" cy="1092.23" r="7.672" style="fill:#fdd001;"/>
            <circle cx="1508.71" cy="629.136" r="7.672" style="fill:#fdd001;"/>
            <circle cx="1508.71" cy="1036.58" r="7.672" style="fill:#fdd001;"/>
            <circle cx="1508.71" cy="1140.36" r="7.672" style="fill:#fdd001;"/>
            <circle cx="1508.71" cy="574.357" r="7.672" style="fill:#fdd001;"/>
            <circle cx="1508.71" cy="978.32" r="7.672" style="fill:#fdd001;"/>
            <circle cx="1508.71" cy="521.316" r="7.672" style="fill:#fdd001;"/>
            <circle cx="1508.71" cy="472.14" r="7.672" style="fill:#fdd001;"/>
            <circle cx="1508.71" cy="921.802" r="7.672" style="fill:#fdd001;"/>
            <circle cx="1508.71" cy="864.415" r="7.672" style="fill:#fdd001;"/>
            <circle cx="1508.71" cy="805.289" r="7.672" style="fill:#fdd001;"/>
            <circle cx="1339.84" cy="747.388" r="7.672" style="fill:#fdd001;"/>
            <circle cx="1339.84" cy="688.262" r="7.672" style="fill:#fdd001;"/>
            <circle cx="1339.84" cy="1092.23" r="7.672" style="fill:#fdd001;"/>
            <circle cx="1339.84" cy="629.136" r="7.672" style="fill:#fdd001;"/>
            <circle cx="1339.84" cy="1036.58" r="7.672" style="fill:#fdd001;"/>
            <circle cx="1339.84" cy="1126.45" r="7.672" style="fill:#fdd001;"/>
            <circle cx="1339.84" cy="574.357" r="7.672" style="fill:#fdd001;"/>
            <circle cx="1339.84" cy="978.32" r="7.672" style="fill:#fdd001;"/>
            <circle cx="1339.84" cy="521.316" r="7.672" style="fill:#fdd001;"/>
            <circle cx="1339.84" cy="486.048" r="7.672" style="fill:#fdd001;"/>
            <circle cx="1339.84" cy="921.802" r="7.672" style="fill:#fdd001;"/>
            <circle cx="1339.84" cy="864.415" r="7.672" style="fill:#fdd001;"/>
            <circle cx="1339.84" cy="805.289" r="7.672" style="fill:#fdd001;"/>
            <circle cx="1283.55" cy="747.388" r="7.672" style="fill:#fdd001;"/>
            <circle cx="1790.33" cy="747.388" r="7.672" style="fill:#fdd001;"/>
            <circle cx="1283.55" cy="688.262" r="7.672" style="fill:#fdd001;"/>
            <circle cx="1777.29" cy="688.262" r="7.672" style="fill:#fdd001;"/>
            <circle cx="1283.55" cy="1092.23" r="7.672" style="fill:#fdd001;"/>
            <circle cx="1283.55" cy="629.136" r="7.672" style="fill:#fdd001;"/>
            <circle cx="1283.55" cy="1036.58" r="7.672" style="fill:#fdd001;"/>
            <circle cx="1283.55" cy="574.357" r="7.672" style="fill:#fdd001;"/>
            <circle cx="1283.55" cy="978.32" r="7.672" style="fill:#fdd001;"/>
            <circle cx="1283.55" cy="521.316" r="7.672" style="fill:#fdd001;"/>
            <circle cx="1283.55" cy="921.802" r="7.672" style="fill:#fdd001;"/>
            <circle cx="1776.42" cy="921.802" r="7.672" style="fill:#fdd001;"/>
            <circle cx="1283.55" cy="864.415" r="7.672" style="fill:#fdd001;"/>
            <circle cx="1789.46" cy="864.415" r="7.672" style="fill:#fdd001;"/>
            <circle cx="1283.55" cy="805.289" r="7.672" style="fill:#fdd001;"/>
            <circle cx="1793.81" cy="805.289" r="7.672" style="fill:#fdd001;"/>
            <circle cx="1452.42" cy="747.388" r="7.672" style="fill:#fdd001;"/>
            <circle cx="1452.42" cy="688.262" r="7.672" style="fill:#fdd001;"/>
            <circle cx="1452.42" cy="1092.23" r="7.672" style="fill:#fdd001;"/>
            <circle cx="1452.42" cy="629.136" r="7.672" style="fill:#fdd001;"/>
            <circle cx="1452.42" cy="1036.58" r="7.672" style="fill:#fdd001;"/>
            <circle cx="1452.42" cy="1146.44" r="7.672" style="fill:#fdd001;"/>
            <circle cx="1452.42" cy="574.357" r="7.672" style="fill:#fdd001;"/>
            <circle cx="1452.42" cy="978.32" r="7.672" style="fill:#fdd001;"/>
            <circle cx="1452.42" cy="521.316" r="7.672" style="fill:#fdd001;"/>
            <circle cx="1452.42" cy="466.056" r="7.672" style="fill:#fdd001;"/>
            <circle cx="1452.42" cy="921.802" r="7.672" style="fill:#fdd001;"/>
            <circle cx="1452.42" cy="864.415" r="7.672" style="fill:#fdd001;"/>
            <circle cx="1452.42" cy="805.289" r="7.672" style="fill:#fdd001;"/>
            <circle cx="1227.25" cy="747.388" r="7.672" style="fill:#fdd001;"/>
            <circle cx="1737.52" cy="747.388" r="7.672" style="fill:#fdd001;"/>
            <circle cx="1227.25" cy="688.262" r="7.672" style="fill:#fdd001;"/>
            <circle cx="1737.52" cy="688.262" r="7.672" style="fill:#fdd001;"/>
            <circle cx="1227.25" cy="629.136" r="7.672" style="fill:#fdd001;"/>
            <circle cx="1737.52" cy="629.136" r="7.672" style="fill:#fdd001;"/>
            <circle cx="1227.25" cy="1036.58" r="7.672" style="fill:#fdd001;"/>
            <circle cx="1227.25" cy="574.357" r="7.672" style="fill:#fdd001;"/>
            <circle cx="1227.25" cy="978.32" r="7.672" style="fill:#fdd001;"/>
            <circle cx="1737.52" cy="978.32" r="7.672" style="fill:#fdd001;"/>
            <circle cx="1227.25" cy="921.802" r="7.672" style="fill:#fdd001;"/>
            <circle cx="1737.52" cy="921.802" r="7.672" style="fill:#fdd001;"/>
            <circle cx="1227.25" cy="864.415" r="7.672" style="fill:#fdd001;"/>
            <circle cx="1737.52" cy="864.415" r="7.672" style="fill:#fdd001;"/>
            <circle cx="1227.25" cy="805.289" r="7.672" style="fill:#fdd001;"/>
            <circle cx="1737.52" cy="805.289" r="7.672" style="fill:#fdd001;"/>
            <circle cx="1565" cy="747.388" r="7.672" style="fill:#fdd001;"/>
            <circle cx="1565" cy="688.262" r="7.672" style="fill:#fdd001;"/>
            <circle cx="1565" cy="1092.23" r="7.672" style="fill:#fdd001;"/>
            <circle cx="1565" cy="629.136" r="7.672" style="fill:#fdd001;"/>
            <circle cx="1565" cy="1036.58" r="7.672" style="fill:#fdd001;"/>
            <circle cx="1565" cy="1128.19" r="7.672" style="fill:#fdd001;"/>
            <circle cx="1565" cy="574.357" r="7.672" style="fill:#fdd001;"/>
            <circle cx="1565" cy="978.32" r="7.672" style="fill:#fdd001;"/>
            <circle cx="1565" cy="521.316" r="7.672" style="fill:#fdd001;"/>
            <circle cx="1565" cy="486.048" r="7.672" style="fill:#fdd001;"/>
            <circle cx="1565" cy="921.802" r="7.672" style="fill:#fdd001;"/>
            <circle cx="1565" cy="864.415" r="7.672" style="fill:#fdd001;"/>
            <circle cx="1565" cy="805.289" r="7.672" style="fill:#fdd001;"/>
            <circle cx="1396.13" cy="747.388" r="7.672" style="fill:#fdd001;"/>
            <circle cx="1396.13" cy="688.262" r="7.672" style="fill:#fdd001;"/>
            <circle cx="1396.13" cy="1092.23" r="7.672" style="fill:#fdd001;"/>
            <circle cx="1396.13" cy="629.136" r="7.672" style="fill:#fdd001;"/>
            <circle cx="1396.13" cy="1036.58" r="7.672" style="fill:#fdd001;"/>
            <circle cx="1396.13" cy="1139.49" r="7.672" style="fill:#fdd001;"/>
            <circle cx="1396.13" cy="574.357" r="7.672" style="fill:#fdd001;"/>
            <circle cx="1396.13" cy="978.32" r="7.672" style="fill:#fdd001;"/>
            <circle cx="1396.13" cy="521.316" r="7.672" style="fill:#fdd001;"/>
            <circle cx="1396.13" cy="472.14" r="7.672" style="fill:#fdd001;"/>
            <circle cx="1396.13" cy="921.802" r="7.672" style="fill:#fdd001;"/>
            <circle cx="1396.13" cy="864.415" r="7.672" style="fill:#fdd001;"/>
            <circle cx="1396.13" cy="805.289" r="7.672" style="fill:#fdd001;"/></g></g></svg>