<?xml version="1.0" encoding="UTF-8" standalone="no"?><!DOCTYPE svg PUBLIC "-//W3C//DTD SVG 1.1//EN"
        "http://www.w3.org/Graphics/SVG/1.1/DTD/svg11.dtd">
<svg width="100%" height="100%" viewBox="0 0 804 804" version="1.1" xmlns="http://www.w3.org/2000/svg"
     xml:space="preserve"
     style="fill-rule:evenodd;clip-rule:evenodd;stroke-linejoin:round;stroke-miterlimit:1.41421;"><rect id="Artboard2" x="0" y="0" width="804" height="804" style="fill:none;"/>
    <g><circle cx="76.107" cy="334.283" r="8.826" style="fill:#fdd001;"/>
        <circle cx="663.133" cy="334.283" r="8.826" style="fill:#fdd001;"/>
        <circle cx="76.107" cy="266.262" r="8.826" style="fill:#fdd001;"/>
        <circle cx="663.133" cy="266.262" r="8.826" style="fill:#fdd001;"/>
        <circle cx="76.107" cy="198.241" r="8.826" style="fill:#fdd001;"/>
        <circle cx="663.133" cy="198.241" r="8.826" style="fill:#fdd001;"/>
        <circle cx="663.133" cy="666.978" r="8.826" style="fill:#fdd001;"/>
        <circle cx="663.133" cy="135.22" r="8.826" style="fill:#fdd001;"/>
        <circle cx="76.107" cy="599.957" r="8.826" style="fill:#fdd001;"/>
        <circle cx="663.133" cy="599.957" r="8.826" style="fill:#fdd001;"/>
        <circle cx="76.107" cy="534.936" r="8.826" style="fill:#fdd001;"/>
        <circle cx="663.133" cy="534.936" r="8.826" style="fill:#fdd001;"/>
        <circle cx="76.107" cy="468.915" r="8.826" style="fill:#fdd001;"/>
        <circle cx="663.133" cy="468.915" r="8.826" style="fill:#fdd001;"/>
        <circle cx="76.107" cy="400.895" r="8.826" style="fill:#fdd001;"/>
        <circle cx="663.133" cy="400.895" r="8.826" style="fill:#fdd001;"/>
        <circle cx="598.373" cy="334.283" r="8.826" style="fill:#fdd001;"/>
        <circle cx="20.348" cy="334.283" r="8.826" style="fill:#fdd001;"/>
        <circle cx="36.348" cy="266.262" r="8.826" style="fill:#fdd001;"/>
        <circle cx="598.373" cy="266.262" r="8.826" style="fill:#fdd001;"/>
        <circle cx="598.373" cy="730.998" r="8.826" style="fill:#fdd001;"/>
        <circle cx="598.373" cy="198.241" r="8.826" style="fill:#fdd001;"/>
        <circle cx="598.373" cy="666.978" r="8.826" style="fill:#fdd001;"/>
        <circle cx="598.373" cy="135.22" r="8.826" style="fill:#fdd001;"/>
        <circle cx="598.373" cy="599.957" r="8.826" style="fill:#fdd001;"/>
        <circle cx="598.373" cy="74.2" r="8.826" style="fill:#fdd001;"/>
        <circle cx="37.348" cy="534.936" r="8.826" style="fill:#fdd001;"/>
        <circle cx="598.373" cy="534.936" r="8.826" style="fill:#fdd001;"/>
        <circle cx="20.348" cy="468.915" r="8.826" style="fill:#fdd001;"/>
        <circle cx="598.373" cy="468.915" r="8.826" style="fill:#fdd001;"/>
        <circle cx="11.348" cy="400.895" r="8.826" style="fill:#fdd001;"/>
        <circle cx="598.373" cy="400.895" r="8.826" style="fill:#fdd001;"/>
        <circle cx="464.666" cy="334.283" r="8.826" style="fill:#fdd001;"/>
        <circle cx="464.666" cy="266.262" r="8.826" style="fill:#fdd001;"/>
        <circle cx="464.666" cy="730.998" r="8.826" style="fill:#fdd001;"/>
        <circle cx="464.666" cy="198.241" r="8.826" style="fill:#fdd001;"/>
        <circle cx="464.666" cy="666.978" r="8.826" style="fill:#fdd001;"/>
        <circle cx="464.666" cy="786.373" r="8.826" style="fill:#fdd001;"/>
        <circle cx="464.666" cy="135.22" r="8.826" style="fill:#fdd001;"/>
        <circle cx="464.666" cy="599.957" r="8.826" style="fill:#fdd001;"/>
        <circle cx="464.666" cy="74.2" r="8.826" style="fill:#fdd001;"/>
        <circle cx="464.666" cy="17.627" r="8.826" style="fill:#fdd001;"/>
        <circle cx="464.666" cy="534.936" r="8.826" style="fill:#fdd001;"/>
        <circle cx="464.666" cy="468.915" r="8.826" style="fill:#fdd001;"/>
        <circle cx="464.666" cy="400.895" r="8.826" style="fill:#fdd001;"/>
        <circle cx="270.387" cy="334.283" r="8.826" style="fill:#fdd001;"/>
        <circle cx="270.387" cy="266.262" r="8.826" style="fill:#fdd001;"/>
        <circle cx="270.387" cy="730.998" r="8.826" style="fill:#fdd001;"/>
        <circle cx="270.387" cy="198.241" r="8.826" style="fill:#fdd001;"/>
        <circle cx="270.387" cy="666.978" r="8.826" style="fill:#fdd001;"/>
        <circle cx="270.387" cy="770.373" r="8.826" style="fill:#fdd001;"/>
        <circle cx="270.387" cy="135.22" r="8.826" style="fill:#fdd001;"/>
        <circle cx="270.387" cy="599.957" r="8.826" style="fill:#fdd001;"/>
        <circle cx="270.387" cy="74.2" r="8.826" style="fill:#fdd001;"/>
        <circle cx="270.387" cy="33.627" r="8.826" style="fill:#fdd001;"/>
        <circle cx="270.387" cy="534.936" r="8.826" style="fill:#fdd001;"/>
        <circle cx="270.387" cy="468.915" r="8.826" style="fill:#fdd001;"/>
        <circle cx="270.387" cy="400.895" r="8.826" style="fill:#fdd001;"/>
        <circle cx="205.627" cy="334.283" r="8.826" style="fill:#fdd001;"/>
        <circle cx="788.652" cy="334.283" r="8.826" style="fill:#fdd001;"/>
        <circle cx="205.627" cy="266.262" r="8.826" style="fill:#fdd001;"/>
        <circle cx="773.652" cy="266.262" r="8.826" style="fill:#fdd001;"/>
        <circle cx="205.627" cy="730.998" r="8.826" style="fill:#fdd001;"/>
        <circle cx="205.627" cy="198.241" r="8.826" style="fill:#fdd001;"/>
        <circle cx="205.627" cy="666.978" r="8.826" style="fill:#fdd001;"/>
        <circle cx="205.627" cy="135.22" r="8.826" style="fill:#fdd001;"/>
        <circle cx="205.627" cy="599.957" r="8.826" style="fill:#fdd001;"/>
        <circle cx="205.627" cy="74.2" r="8.826" style="fill:#fdd001;"/>
        <circle cx="205.627" cy="534.936" r="8.826" style="fill:#fdd001;"/>
        <circle cx="772.652" cy="534.936" r="8.826" style="fill:#fdd001;"/>
        <circle cx="205.627" cy="468.915" r="8.826" style="fill:#fdd001;"/>
        <circle cx="787.652" cy="468.915" r="8.826" style="fill:#fdd001;"/>
        <circle cx="205.627" cy="400.895" r="8.826" style="fill:#fdd001;"/>
        <circle cx="792.652" cy="400.895" r="8.826" style="fill:#fdd001;"/>
        <circle cx="399.906" cy="334.283" r="8.826" style="fill:#fdd001;"/>
        <circle cx="399.906" cy="266.262" r="8.826" style="fill:#fdd001;"/>
        <circle cx="399.906" cy="730.998" r="8.826" style="fill:#fdd001;"/>
        <circle cx="399.906" cy="198.241" r="8.826" style="fill:#fdd001;"/>
        <circle cx="399.906" cy="666.978" r="8.826" style="fill:#fdd001;"/>
        <circle cx="399.906" cy="793.373" r="8.826" style="fill:#fdd001;"/>
        <circle cx="399.906" cy="135.22" r="8.826" style="fill:#fdd001;"/>
        <circle cx="399.906" cy="599.957" r="8.826" style="fill:#fdd001;"/>
        <circle cx="399.906" cy="74.2" r="8.826" style="fill:#fdd001;"/>
        <circle cx="399.906" cy="10.627" r="8.826" style="fill:#fdd001;"/>
        <circle cx="399.906" cy="534.936" r="8.826" style="fill:#fdd001;"/>
        <circle cx="399.906" cy="468.915" r="8.826" style="fill:#fdd001;"/>
        <circle cx="399.906" cy="400.895" r="8.826" style="fill:#fdd001;"/>
        <circle cx="140.867" cy="334.283" r="8.826" style="fill:#fdd001;"/>
        <circle cx="727.893" cy="334.283" r="8.826" style="fill:#fdd001;"/>
        <circle cx="140.867" cy="266.262" r="8.826" style="fill:#fdd001;"/>
        <circle cx="727.893" cy="266.262" r="8.826" style="fill:#fdd001;"/>
        <circle cx="140.867" cy="198.241" r="8.826" style="fill:#fdd001;"/>
        <circle cx="727.893" cy="198.241" r="8.826" style="fill:#fdd001;"/>
        <circle cx="140.867" cy="666.978" r="8.826" style="fill:#fdd001;"/>
        <circle cx="140.867" cy="135.22" r="8.826" style="fill:#fdd001;"/>
        <circle cx="140.867" cy="599.957" r="8.826" style="fill:#fdd001;"/>
        <circle cx="727.893" cy="599.957" r="8.826" style="fill:#fdd001;"/>
        <circle cx="140.867" cy="534.936" r="8.826" style="fill:#fdd001;"/>
        <circle cx="727.893" cy="534.936" r="8.826" style="fill:#fdd001;"/>
        <circle cx="140.867" cy="468.915" r="8.826" style="fill:#fdd001;"/>
        <circle cx="727.893" cy="468.915" r="8.826" style="fill:#fdd001;"/>
        <circle cx="140.867" cy="400.895" r="8.826" style="fill:#fdd001;"/>
        <circle cx="727.893" cy="400.895" r="8.826" style="fill:#fdd001;"/>
        <circle cx="529.425" cy="334.283" r="8.826" style="fill:#fdd001;"/>
        <circle cx="529.425" cy="266.262" r="8.826" style="fill:#fdd001;"/>
        <circle cx="529.425" cy="730.998" r="8.826" style="fill:#fdd001;"/>
        <circle cx="529.425" cy="198.241" r="8.826" style="fill:#fdd001;"/>
        <circle cx="529.425" cy="666.978" r="8.826" style="fill:#fdd001;"/>
        <circle cx="529.425" cy="772.373" r="8.826" style="fill:#fdd001;"/>
        <circle cx="529.425" cy="135.22" r="8.826" style="fill:#fdd001;"/>
        <circle cx="529.425" cy="599.957" r="8.826" style="fill:#fdd001;"/>
        <circle cx="529.425" cy="74.2" r="8.826" style="fill:#fdd001;"/>
        <circle cx="529.425" cy="33.627" r="8.826" style="fill:#fdd001;"/>
        <circle cx="529.425" cy="534.936" r="8.826" style="fill:#fdd001;"/>
        <circle cx="529.425" cy="468.915" r="8.826" style="fill:#fdd001;"/>
        <circle cx="529.425" cy="400.895" r="8.826" style="fill:#fdd001;"/>
        <circle cx="335.146" cy="334.283" r="8.826" style="fill:#fdd001;"/>
        <circle cx="335.146" cy="266.262" r="8.826" style="fill:#fdd001;"/>
        <circle cx="335.146" cy="730.998" r="8.826" style="fill:#fdd001;"/>
        <circle cx="335.146" cy="198.241" r="8.826" style="fill:#fdd001;"/>
        <circle cx="335.146" cy="666.978" r="8.826" style="fill:#fdd001;"/>
        <circle cx="335.146" cy="785.373" r="8.826" style="fill:#fdd001;"/>
        <circle cx="335.146" cy="135.22" r="8.826" style="fill:#fdd001;"/>
        <circle cx="335.146" cy="599.957" r="8.826" style="fill:#fdd001;"/>
        <circle cx="335.146" cy="74.2" r="8.826" style="fill:#fdd001;"/>
        <circle cx="335.146" cy="17.627" r="8.826" style="fill:#fdd001;"/>
        <circle cx="335.146" cy="534.936" r="8.826" style="fill:#fdd001;"/>
        <circle cx="335.146" cy="468.915" r="8.826" style="fill:#fdd001;"/>
        <circle cx="335.146" cy="400.895" r="8.826" style="fill:#fdd001;"/></g></svg>